<svg width="24" height="24" viewBox="0 0 24 24" fill="none" xmlns="http://www.w3.org/2000/svg">
<path d="M8.82202 15.1781L15.1783 8.8125" stroke="#D0D5DD" stroke-width="2" stroke-linecap="round" stroke-linejoin="round"/>
<path d="M13.5935 16.7719L10.9403 19.425C10.5224 19.843 10.0262 20.1745 9.48005 20.4007C8.93394 20.6269 8.34863 20.7434 7.75752 20.7434C6.56374 20.7434 5.41885 20.2691 4.57471 19.425C3.73058 18.5809 3.25635 17.436 3.25635 16.2422C3.25635 15.0484 3.73058 13.9035 4.57471 13.0594L7.22784 10.4062" stroke="#D0D5DD" stroke-width="2" stroke-linecap="round" stroke-linejoin="round"/>
<path d="M16.7719 13.5938L19.425 10.9406C20.2691 10.0965 20.7434 8.95162 20.7434 7.75783C20.7434 6.56404 20.2691 5.41915 19.425 4.57502C18.5809 3.73088 17.436 3.25665 16.2422 3.25665C15.0484 3.25665 13.9035 3.73088 13.0594 4.57502L10.4062 7.22814" stroke="#D0D5DD" stroke-width="2" stroke-linecap="round" stroke-linejoin="round"/>
</svg>
