<svg width="125" height="32" viewBox="0 0 125 32" fill="none" xmlns="http://www.w3.org/2000/svg">
<path d="M22.7919 0.934082V29.3633H16.9776V17.4636H5.81418V29.3633H-6.10352e-05V0.934082H5.81418V12.2245H16.9776V0.934082H22.7919Z" fill="#012E4C"/>
<path d="M24.576 19.0883C24.576 13.8898 27.5994 8.56946 34.2276 8.56946C41.1273 8.56946 43.8793 13.8898 43.8793 18.5602C43.8793 19.3319 43.8406 19.941 43.8018 20.3878H29.77C30.1577 23.2714 31.9019 25.0584 34.6153 25.0584C36.7859 25.0584 38.2202 24.1649 38.6465 22.4185H43.9181C43.1429 26.8453 39.4217 29.6883 34.6153 29.6883C27.987 29.6883 24.576 24.2462 24.576 19.0883ZM38.4915 16.8138C38.3364 14.5397 36.8247 12.712 34.2276 12.712C31.7857 12.712 30.3127 13.971 29.8476 16.8138H38.4915Z" fill="#012E4C"/>
<path d="M45.7022 0.00012207H51.0901V29.3633H45.7022V0.00012207Z" fill="#012E4C"/>
<path d="M58.5709 8.89429H53.1829V29.3633H58.5709V8.89429Z" fill="#012E4C"/>
<path d="M60.1987 29.3633L67.2533 18.6821L60.7026 8.89429H66.6332L70.1992 14.2552L73.7266 8.89429H79.657L73.1064 18.6821L80.1611 29.3633H74.3856L70.1992 23.0681L65.9742 29.3633H60.1987Z" fill="#012E4C"/>
<path d="M84.4009 28.1736V29.354H83.6209V20.1707H84.4009V23.9971C84.7846 23.2318 85.6512 22.713 86.5673 22.713C88.548 22.713 89.6002 24.2176 89.6002 26.0854C89.6002 27.9531 88.548 29.4577 86.5673 29.4577C85.6512 29.4577 84.7846 28.9389 84.4009 28.1736ZM86.5425 28.7055C87.8919 28.7055 88.7708 27.6678 88.7708 26.0854C88.7708 24.503 87.8919 23.4653 86.5425 23.4653C85.1931 23.4653 84.3142 24.503 84.3142 26.0854C84.3142 27.6678 85.1931 28.7055 86.5425 28.7055Z" fill="#012E4C"/>
<path d="M91.9399 29.5097L89.5878 22.8168H90.4048L92.3113 28.2775L94.2177 22.8168H95.0471L92.9798 28.7314L91.9275 32H91.1723L91.9399 29.5097Z" fill="#012E4C"/>
<path d="M116.677 25.6547V14.7697H113.172V14.8059V21.8059V26.5879C113.172 28.0983 114.345 29.3271 115.787 29.3271H124.444V25.6547H116.677Z" fill="#012E4C"/>
<path d="M101.736 15.8143V14.7697H98.2211V22.245C100.324 20.9492 101.736 18.5552 101.736 15.8143Z" fill="#012E4C"/>
<path d="M107.535 14.7697V20.2663C107.535 20.2663 104.659 20.25 104.402 20.2663C103.425 20.3278 102.519 20.7136 101.709 21.2035C101.607 21.2649 101.508 21.3294 101.409 21.396C99.7206 22.5581 98.5321 24.4512 98.2556 26.6466C98.2556 26.6466 98.2214 27.3695 98.2211 27.602V29.3632H101.702V23.9341H101.709L107.531 23.9332V23.9387V27.6624V29.3632H107.535H110.993H111.007H111.05V23.9387V20.2663V14.7697H107.535Z" fill="#012E4C"/>
<path d="M58.7647 0.00012207H53.0668V3.56532C53.0668 4.89349 54.0944 5.97018 55.362 5.97018H58.7647V0.00012207Z" fill="#018683"/>
</svg>
