<svg width="388" height="500" viewBox="0 0 388 500" fill="none" xmlns="http://www.w3.org/2000/svg">
<g opacity="0.08">
<circle cx="250" cy="250" r="250" fill="#012E4C"/>
<path d="M326.16 290.735V163.902H285.319V164.323V245.889V301.608C285.319 319.208 298.987 333.526 315.789 333.526H416.661V290.735H326.16Z" fill="white"/>
<path d="M152.074 176.072V163.901H111.113V251.003C135.617 235.905 152.074 208.01 152.074 176.072Z" fill="white"/>
<path d="M219.644 163.902V227.948C219.644 227.948 186.132 227.759 183.131 227.948C171.753 228.665 161.193 233.161 151.751 238.869C150.566 239.585 149.407 240.337 148.26 241.112C128.585 254.653 114.735 276.711 111.513 302.293C111.513 302.293 111.116 310.716 111.112 313.425V333.947H151.676V270.686H151.751L219.589 270.676V270.74V314.129V333.947H219.644H259.937H260.099H260.601V270.74V227.948V163.902H219.644Z" fill="white"/>
</g>
</svg>
