<svg width="36" height="36" viewBox="0 0 36 36" fill="none" xmlns="http://www.w3.org/2000/svg">
<circle cx="18" cy="18" r="18" fill="#012E4C"/>
<path d="M23.484 20.9319V11.7999H20.5435V11.8302V17.703V21.7148C20.5435 22.9819 21.5275 24.0128 22.7373 24.0128H30.0001V20.9319H23.484Z" fill="white"/>
<path d="M10.9492 12.6763V11.8H8V18.0714C9.76428 16.9843 10.9492 14.9758 10.9492 12.6763Z" fill="white"/>
<path d="M15.8143 11.8V16.4113C15.8143 16.4113 13.4014 16.3977 13.1854 16.4113C12.3662 16.4629 11.6058 16.7866 10.926 17.1976C10.8407 17.2491 10.7572 17.3033 10.6746 17.3591C9.25805 18.334 8.2609 19.9222 8.02893 21.7641C8.02893 21.7641 8.00029 22.3705 8 22.5656V24.0432H10.9206V19.4884H10.926L15.8104 19.4877V19.4923V22.6163V24.0432H15.8143H18.7154H18.7271H18.7632V19.4923V16.4113V11.8H15.8143Z" fill="white"/>
</svg>
