<svg width="24" height="24" viewBox="0 0 24 24" fill="none" xmlns="http://www.w3.org/2000/svg">
<path d="M19.7154 3.36566L2.24044 8.28753C2.09168 8.3282 1.95908 8.41374 1.86069 8.53249C1.76231 8.65125 1.70292 8.79745 1.69062 8.95117C1.67832 9.1049 1.71371 9.25867 1.79197 9.39156C1.87022 9.52445 1.98754 9.62998 2.12794 9.69378L10.1529 13.4907C10.3101 13.5635 10.4364 13.6897 10.5092 13.8469L14.3061 21.8719C14.3699 22.0123 14.4754 22.1296 14.6083 22.2079C14.7412 22.2861 14.895 22.3215 15.0487 22.3092C15.2024 22.2969 15.3486 22.2375 15.4674 22.1392C15.5861 22.0408 15.6716 21.9082 15.7123 21.7594L20.6342 4.28441C20.6715 4.15689 20.6738 4.02168 20.6409 3.89296C20.6079 3.76424 20.541 3.64675 20.447 3.5528C20.3531 3.45885 20.2356 3.39191 20.1069 3.35898C19.9782 3.32605 19.843 3.32836 19.7154 3.36566V3.36566Z" stroke="#1D283C" stroke-width="2" stroke-linecap="round" stroke-linejoin="round"/>
<path d="M10.3967 13.6031L14.6342 9.3656" stroke="#1D283C" stroke-width="2" stroke-linecap="round" stroke-linejoin="round"/>
</svg>
